<?xml version="1.0" standalone="no"?>
<!DOCTYPE svg PUBLIC "-//W3C//DTD SVG 20010904//EN"
 "http://www.w3.org/TR/2001/REC-SVG-20010904/DTD/svg10.dtd">
<svg version="1.0" xmlns="http://www.w3.org/2000/svg"
 width="360.000000pt" height="360.000000pt" viewBox="0 0 360.000000 360.000000"
 preserveAspectRatio="xMidYMid meet">
<metadata>
Created by potrace 1.11, written by Peter Selinger 2001-2013
</metadata>
<g transform="translate(0.000000,360.000000) scale(0.100000,-0.100000)"
fill="#000000" stroke="none">
<path d="M555 2633 c7 -27 48 -165 90 -308 43 -143 99 -336 127 -430 27 -93
69 -237 94 -320 25 -82 47 -157 49 -165 2 -8 37 -126 77 -263 l73 -247 285 0
285 0 89 303 c105 360 124 418 126 392 2 -27 4 -43 34 -230 13 -88 27 -178 30
-200 4 -23 8 -50 10 -60 2 -11 10 -62 17 -112 l13 -93 568 0 568 0 0 198 0
199 -332 -1 -332 0 -8 29 c-4 17 -9 41 -12 55 -2 14 -13 75 -25 135 -11 61
-23 124 -26 140 -3 17 -9 50 -15 75 -5 25 -18 97 -30 160 -12 63 -27 147 -35
185 -8 39 -17 86 -20 105 -3 19 -10 55 -15 80 -5 25 -23 122 -40 215 -17 94
-34 178 -36 188 -5 16 -23 17 -246 15 l-241 -3 -54 -230 c-29 -126 -55 -239
-57 -250 -3 -11 -25 -108 -51 -215 -25 -107 -48 -206 -51 -220 -18 -88 -67
-303 -80 -345 -8 -27 -14 -51 -14 -52 1 -16 -1 -23 -9 -23 -4 0 -13 21 -18 48
-36 167 -90 401 -143 617 -34 138 -65 268 -70 290 -4 22 -11 49 -13 60 -8 28
-38 157 -42 175 -2 8 -11 45 -20 83 l-17 67 -249 0 -248 0 14 -47z"/>
</g>
</svg>
