<?xml version="1.0" standalone="no"?>
<!DOCTYPE svg PUBLIC "-//W3C//DTD SVG 20010904//EN"
 "http://www.w3.org/TR/2001/REC-SVG-20010904/DTD/svg10.dtd">
<svg version="1.0" xmlns="http://www.w3.org/2000/svg"
 width="700.000000pt" height="700.000000pt" viewBox="0 0 700.000000 700.000000"
 preserveAspectRatio="xMidYMid meet">
<metadata>
Created by potrace 1.11, written by Peter Selinger 2001-2013
</metadata>
<g transform="translate(0.000000,700.000000) scale(0.100000,-0.100000)"
fill="#000000" stroke="none">
<path d="M3797 5804 c-1 -1 -49 -5 -107 -8 -58 -4 -117 -8 -130 -11 -14 -2
-47 -6 -75 -10 -288 -35 -573 -122 -815 -248 -145 -75 -254 -149 -385 -257
-115 -96 -293 -296 -361 -405 -10 -16 -21 -32 -25 -35 -16 -13 -91 -157 -154
-295 -48 -106 -117 -335 -139 -465 -3 -19 -8 -44 -10 -55 -4 -21 -13 -86 -21
-157 -15 -134 -21 -400 -11 -538 24 -326 84 -575 199 -838 42 -95 147 -280
190 -336 138 -177 285 -328 411 -421 33 -26 68 -51 77 -58 50 -38 216 -132
314 -178 166 -77 438 -162 590 -184 23 -3 50 -7 62 -9 12 -3 43 -7 70 -11 26
-4 59 -8 72 -11 164 -25 610 -22 786 6 33 5 78 12 100 15 33 5 106 21 275 60
96 22 350 117 492 185 l87 41 0 453 -1 454 -101 -65 c-190 -120 -428 -227
-622 -278 -78 -21 -118 -29 -245 -50 -107 -19 -331 -24 -460 -12 -490 46 -853
324 -1025 783 -36 95 -69 221 -80 304 -3 25 -8 52 -10 60 -24 94 -21 472 5
630 5 30 12 69 14 85 20 115 89 314 144 414 150 274 374 463 655 555 187 62
425 86 632 64 202 -21 212 -23 355 -60 201 -52 400 -139 612 -267 65 -39 120
-71 122 -71 2 0 4 202 4 450 l1 449 -95 46 c-52 25 -97 45 -99 45 -3 0 -24 9
-48 19 -107 48 -369 130 -467 147 -14 2 -45 9 -70 14 -25 5 -63 12 -85 15 -23
3 -50 7 -61 9 -33 7 -113 16 -194 22 -65 6 -369 12 -373 8z"/>
</g>
</svg>
